<svg width="205" height="40" viewBox="0 0 205 40" fill="none" xmlns="http://www.w3.org/2000/svg">
<path d="M5.51896 19.4299C3.88209 19.4299 2.60685 19.1051 1.69324 18.4556C0.798672 17.7869 0.237186 16.7648 0.00878469 15.3892C-0.0292822 14.988 0.0563682 14.6823 0.265736 14.4721C0.475104 14.2429 0.779639 14.1282 1.17934 14.1282C1.56001 14.1282 1.84551 14.2238 2.03584 14.4148C2.22618 14.5868 2.35941 14.8829 2.43555 15.3032C2.56878 15.9528 2.8638 16.4018 3.3206 16.6501C3.79644 16.8985 4.52922 17.0227 5.51896 17.0227H9.63018C10.4677 17.0227 11.1053 16.9271 11.543 16.7361C11.9998 16.545 12.3234 16.2298 12.5137 15.7904C12.7041 15.3319 12.7992 14.6918 12.7992 13.8703C12.7992 12.6476 12.5708 11.807 12.114 11.3484C11.6572 10.8899 10.8293 10.6607 9.63018 10.6607H6.08996C4.30082 10.6607 2.96848 10.2212 2.09295 9.34241C1.21741 8.46357 0.779639 7.11666 0.779639 5.30167C0.779639 3.50579 1.20789 2.17799 2.0644 1.31825C2.93993 0.439418 4.27227 0 6.06142 0H9.45888C12.4662 0 14.1982 1.26094 14.655 3.78282C14.7121 4.18402 14.636 4.49926 14.4266 4.72852C14.2172 4.93868 13.9032 5.04375 13.4845 5.04375C13.1038 5.04375 12.8183 4.94823 12.6279 4.75718C12.4376 4.56613 12.3139 4.27 12.2568 3.86879C12.1045 3.31474 11.819 2.93264 11.4003 2.72248C10.9816 2.51232 10.3344 2.40725 9.45888 2.40725H6.06142C5.28104 2.40725 4.68149 2.49322 4.26276 2.66517C3.86305 2.83711 3.57755 3.13324 3.40625 3.55355C3.25398 3.95476 3.17785 4.53747 3.17785 5.30167C3.17785 6.08498 3.2635 6.6868 3.4348 7.10711C3.6061 7.50832 3.8916 7.80445 4.29131 7.9955C4.71004 8.16744 5.30959 8.25342 6.08996 8.25342H9.63018C11.5145 8.25342 12.9135 8.71194 13.8271 9.62899C14.7407 10.546 15.1975 11.9598 15.1975 13.8703C15.1975 15.7617 14.7407 17.166 13.8271 18.083C12.9135 18.9809 11.5145 19.4299 9.63018 19.4299H5.51896Z" fill="white"/>
<path d="M27.6904 19.4299C26.891 19.4299 26.4913 19.0287 26.4913 18.2263V2.4359H20.9525C20.1531 2.4359 19.7534 2.0347 19.7534 1.23228C19.7534 0.429865 20.1531 0.0286573 20.9525 0.0286573H34.4282C35.2276 0.0286573 35.6273 0.429865 35.6273 1.23228C35.6273 2.0347 35.2276 2.4359 34.4282 2.4359H28.8895V18.2263C28.8895 18.6084 28.7848 18.9045 28.5754 19.1147C28.3661 19.3248 28.071 19.4299 27.6904 19.4299Z" fill="white"/>
<path d="M54.761 17.7391C54.8372 17.9111 54.8752 18.1021 54.8752 18.3123C54.8752 18.7708 54.6183 19.1051 54.1044 19.3153C53.9331 19.3917 53.7428 19.4299 53.5334 19.4299C53.0766 19.4299 52.7435 19.172 52.5341 18.6562L50.9924 14.902H42.1133L40.6287 18.6562C40.4194 19.172 40.0863 19.4299 39.6295 19.4299C39.4391 19.4299 39.2583 19.3917 39.087 19.3153C38.5541 19.1242 38.2876 18.7899 38.2876 18.3123C38.2876 18.1021 38.3257 17.9111 38.4018 17.7391L45.1967 0.945704C45.4823 0.315235 45.9295 0 46.5386 0H46.5957C47.2238 0.0382098 47.6425 0.353444 47.8519 0.945704L54.761 17.7391ZM43.0555 12.4948H50.0217L46.453 3.81147L43.0555 12.4948Z" fill="white"/>
<path d="M75.1463 6.27604C75.1463 7.78534 74.7942 8.99852 74.0899 9.91556C73.3857 10.8326 72.3674 11.3962 71.0351 11.6064L74.7751 17.8537C74.8893 18.0448 74.9464 18.255 74.9464 18.4842C74.9464 18.9045 74.7371 19.2389 74.3183 19.4872C74.0709 19.6401 73.852 19.7165 73.6617 19.7165C73.281 19.7165 72.9574 19.5063 72.691 19.086L68.2657 11.6923H64.2687V18.2263C64.2687 18.6084 64.164 18.9045 63.9546 19.1147C63.7453 19.3248 63.4502 19.4299 63.0696 19.4299C62.6889 19.4299 62.3939 19.3248 62.1845 19.1147C61.9752 18.9045 61.8705 18.6084 61.8705 18.2263V1.20362C61.8705 0.821521 61.9752 0.525391 62.1845 0.315234C62.3939 0.105078 62.6889 0 63.0696 0H69.7503C71.5014 0 72.8337 0.468076 73.7473 1.40423C74.68 2.32127 75.1463 3.65863 75.1463 5.4163V6.27604ZM72.7481 5.4163C72.7481 4.34642 72.5197 3.58221 72.0629 3.12369C71.6061 2.64606 70.8352 2.40725 69.7503 2.40725H64.2687V9.28509H69.7503C70.8352 9.28509 71.6061 9.05583 72.0629 8.59731C72.5197 8.13879 72.7481 7.36503 72.7481 6.27604V5.4163Z" fill="white"/>
<path d="M94.7317 8.3967C96.2353 9.27554 96.9872 10.8326 96.9872 13.0679V14.0423C96.9872 15.7999 96.5208 17.1373 95.5882 18.0543C94.6746 18.9714 93.3423 19.4299 91.5912 19.4299H83.7684C83.3878 19.4299 83.0927 19.3248 82.8834 19.1147C82.674 18.9045 82.5693 18.6084 82.5693 18.2263V1.20362C82.5693 0.821521 82.674 0.525391 82.8834 0.315234C83.0927 0.105078 83.3878 0 83.7684 0H91.22C92.7237 0 93.8847 0.401208 94.7031 1.20362C95.5216 2.00604 95.9308 3.15235 95.9308 4.64255V5.4163C95.9308 6.02767 95.8261 6.59127 95.6167 7.10711C95.4074 7.62295 95.1124 8.05281 94.7317 8.3967ZM84.9675 7.70892H92.1051C92.5999 7.6516 92.9616 7.42234 93.19 7.02113C93.4184 6.60082 93.5326 6.06588 93.5326 5.4163V4.64255C93.5326 3.82103 93.3613 3.24787 93.0187 2.92308C92.6761 2.57919 92.0765 2.40725 91.22 2.40725H84.9675V7.70892ZM94.5889 13.0679C94.5889 11.998 94.3605 11.2434 93.9037 10.8039C93.4469 10.3454 92.6761 10.1162 91.5912 10.1162H84.9675V17.0227H91.5912C92.6571 17.0227 93.4184 16.7934 93.8752 16.3349C94.351 15.8764 94.5889 15.1122 94.5889 14.0423V13.0679Z" fill="white"/>
<path d="M117.91 6.27604C117.91 7.78534 117.558 8.99852 116.854 9.91556C116.15 10.8326 115.131 11.3962 113.799 11.6064L117.539 17.8537C117.653 18.0448 117.71 18.255 117.71 18.4842C117.71 18.9045 117.501 19.2389 117.082 19.4872C116.835 19.6401 116.616 19.7165 116.426 19.7165C116.045 19.7165 115.721 19.5063 115.455 19.086L111.03 11.6923H107.033V18.2263C107.033 18.6084 106.928 18.9045 106.719 19.1147C106.509 19.3248 106.214 19.4299 105.833 19.4299C105.453 19.4299 105.158 19.3248 104.948 19.1147C104.739 18.9045 104.634 18.6084 104.634 18.2263V1.20362C104.634 0.821521 104.739 0.525391 104.948 0.315234C105.158 0.105078 105.453 0 105.833 0H112.514C114.265 0 115.598 0.468076 116.511 1.40423C117.444 2.32127 117.91 3.65863 117.91 5.4163V6.27604ZM115.512 5.4163C115.512 4.34642 115.284 3.58221 114.827 3.12369C114.37 2.64606 113.599 2.40725 112.514 2.40725H107.033V9.28509H112.514C113.599 9.28509 114.37 9.05583 114.827 8.59731C115.284 8.13879 115.512 7.36503 115.512 6.27604V5.4163Z" fill="white"/>
<path d="M136.782 17.0227C137.162 17.0227 137.458 17.1277 137.667 17.3379C137.876 17.5481 137.981 17.8442 137.981 18.2263C137.981 18.6084 137.876 18.9045 137.667 19.1147C137.458 19.3248 137.162 19.4299 136.782 19.4299H126.532C126.152 19.4299 125.857 19.3248 125.647 19.1147C125.438 18.9045 125.333 18.6084 125.333 18.2263V1.20362C125.333 0.821521 125.438 0.525391 125.647 0.315234C125.857 0.105078 126.152 0 126.532 0H136.782C137.162 0 137.458 0.105078 137.667 0.315234C137.876 0.525391 137.981 0.821521 137.981 1.20362C137.981 1.58573 137.876 1.88185 137.667 2.09201C137.458 2.30217 137.162 2.40725 136.782 2.40725H127.731V8.42536H133.413C133.794 8.42536 134.089 8.53044 134.298 8.7406C134.507 8.95075 134.612 9.24688 134.612 9.62899C134.612 10.0111 134.507 10.3072 134.298 10.5174C134.089 10.7275 133.794 10.8326 133.413 10.8326H127.731V17.0227H136.782Z" fill="white"/>
<path d="M156.839 17.0227C157.22 17.0227 157.515 17.1277 157.724 17.3379C157.934 17.5481 158.039 17.8442 158.039 18.2263C158.039 18.6084 157.934 18.9045 157.724 19.1147C157.515 19.3248 157.22 19.4299 156.839 19.4299H146.59C146.209 19.4299 145.914 19.3248 145.705 19.1147C145.495 18.9045 145.391 18.6084 145.391 18.2263V1.20362C145.391 0.821521 145.495 0.525391 145.705 0.315234C145.914 0.105078 146.209 0 146.59 0H156.839C157.22 0 157.515 0.105078 157.724 0.315234C157.934 0.525391 158.039 0.821521 158.039 1.20362C158.039 1.58573 157.934 1.88185 157.724 2.09201C157.515 2.30217 157.22 2.40725 156.839 2.40725H147.789V8.42536H153.47C153.851 8.42536 154.146 8.53044 154.356 8.7406C154.565 8.95075 154.67 9.24688 154.67 9.62899C154.67 10.0111 154.565 10.3072 154.356 10.5174C154.146 10.7275 153.851 10.8326 153.47 10.8326H147.789V17.0227H156.839Z" fill="white"/>
<path d="M179.438 14.7301C179.838 14.7301 180.142 14.8447 180.352 15.0739C180.58 15.2841 180.666 15.5898 180.609 15.991C180.38 17.1182 179.876 17.9779 179.095 18.5702C178.315 19.1433 177.278 19.4299 175.983 19.4299H165.448C165.068 19.4299 164.773 19.3248 164.563 19.1147C164.373 18.9045 164.278 18.6084 164.278 18.2263C164.278 17.9779 164.43 17.634 164.735 17.1946L175.983 2.40725H168.589C167.98 2.40725 167.504 2.50277 167.161 2.69382C166.819 2.86577 166.581 3.1619 166.448 3.58221C166.352 3.96431 166.21 4.25089 166.019 4.44194C165.829 4.61389 165.553 4.69986 165.191 4.69986C164.83 4.69986 164.535 4.61389 164.306 4.44194C164.097 4.25089 163.992 4.00252 163.992 3.69684C163.992 3.58221 164.002 3.49624 164.021 3.43892C164.249 2.33083 164.744 1.48065 165.505 0.888389C166.286 0.29613 167.314 0 168.589 0H178.125C178.524 0 178.819 0.105078 179.01 0.315234C179.219 0.525391 179.324 0.821521 179.324 1.20362C179.324 1.52841 179.171 1.89141 178.867 2.29261L167.618 17.0227H175.983C176.631 17.0227 177.125 16.9367 177.468 16.7648C177.811 16.5737 178.039 16.268 178.153 15.8477C178.267 15.4656 178.42 15.1886 178.61 15.0166C178.8 14.8256 179.076 14.7301 179.438 14.7301Z" fill="white"/>
<path d="M199.436 17.0227C199.817 17.0227 200.112 17.1277 200.321 17.3379C200.53 17.5481 200.635 17.8442 200.635 18.2263C200.635 18.6084 200.53 18.9045 200.321 19.1147C200.112 19.3248 199.817 19.4299 199.436 19.4299H189.186C188.806 19.4299 188.511 19.3248 188.301 19.1147C188.092 18.9045 187.987 18.6084 187.987 18.2263V1.20362C187.987 0.821521 188.092 0.525391 188.301 0.315234C188.511 0.105078 188.806 0 189.186 0H199.436C199.817 0 200.112 0.105078 200.321 0.315234C200.53 0.525391 200.635 0.821521 200.635 1.20362C200.635 1.58573 200.53 1.88185 200.321 2.09201C200.112 2.30217 199.817 2.40725 199.436 2.40725H190.386V8.42536H196.067C196.448 8.42536 196.743 8.53044 196.952 8.7406C197.162 8.95075 197.266 9.24688 197.266 9.62899C197.266 10.0111 197.162 10.3072 196.952 10.5174C196.743 10.7275 196.448 10.8326 196.067 10.8326H190.386V17.0227H199.436Z" fill="white"/>
<path d="M6.76398 39.0113C7.059 39.0113 7.20651 39.1594 7.20651 39.4555C7.20651 39.7516 7.059 39.8997 6.76398 39.8997H1.48221C1.18719 39.8997 1.03968 39.7516 1.03968 39.4555V30.9728C1.03968 30.6767 1.18719 30.5286 1.48221 30.5286H6.76398C7.059 30.5286 7.20651 30.6767 7.20651 30.9728C7.20651 31.269 7.059 31.417 6.76398 31.417H1.92473V34.7127H5.07952C5.37454 34.7127 5.52205 34.8607 5.52205 35.1568C5.52205 35.453 5.37454 35.601 5.07952 35.601H1.92473V39.0113H6.76398Z" fill="white"/>
<path d="M15.3246 39.8997C14.2777 39.8997 13.5069 39.6561 13.012 39.1689C12.5267 38.6722 12.284 37.8984 12.284 36.8477V33.5807C12.284 32.5108 12.5267 31.7323 13.012 31.2451C13.4974 30.7579 14.2635 30.5191 15.3103 30.5286H17.0376C17.9226 30.5286 18.584 30.7149 19.0218 31.0875C19.4596 31.4505 19.707 32.0332 19.7641 32.8356C19.7831 32.9789 19.7546 33.0935 19.6785 33.1795C19.6023 33.2559 19.4881 33.2941 19.3359 33.2941C19.0789 33.2941 18.9266 33.146 18.8791 32.8499C18.841 32.3054 18.684 31.9329 18.408 31.7323C18.132 31.5221 17.6752 31.417 17.0376 31.417H15.3103C14.7678 31.4075 14.3396 31.4743 14.0255 31.6176C13.721 31.7514 13.5021 31.9758 13.3689 32.2911C13.2356 32.5968 13.169 33.0266 13.169 33.5807V36.8477C13.169 37.3921 13.2356 37.822 13.3689 38.1372C13.5116 38.4429 13.7353 38.6674 14.0398 38.8107C14.3539 38.9444 14.7821 39.0113 15.3246 39.0113H17.0376C17.6752 39.0113 18.132 38.911 18.408 38.7104C18.684 38.5002 18.841 38.1229 18.8791 37.5784C18.8981 37.4256 18.9409 37.3157 19.0075 37.2489C19.0837 37.1724 19.1931 37.1342 19.3359 37.1342C19.4881 37.1342 19.6023 37.1772 19.6785 37.2632C19.7546 37.3396 19.7831 37.4495 19.7641 37.5928C19.707 38.3952 19.4596 38.9827 19.0218 39.3552C18.584 39.7182 17.9226 39.8997 17.0376 39.8997H15.3246Z" fill="white"/>
<path d="M26.1569 39.8997C26.0332 39.8997 25.9285 39.8567 25.8428 39.7707C25.7572 39.6848 25.7144 39.5797 25.7144 39.4555V30.9728C25.7144 30.8391 25.7572 30.734 25.8428 30.6576C25.9285 30.5716 26.0332 30.5286 26.1569 30.5286C26.2901 30.5286 26.3948 30.5716 26.4709 30.6576C26.5566 30.734 26.5994 30.8391 26.5994 30.9728V34.6983H32.5236V30.9728C32.5236 30.8391 32.5664 30.734 32.6521 30.6576C32.7377 30.5716 32.8424 30.5286 32.9661 30.5286C33.0993 30.5286 33.204 30.5716 33.2802 30.6576C33.3658 30.734 33.4086 30.8391 33.4086 30.9728V39.4555C33.4086 39.5797 33.3658 39.6848 33.2802 39.7707C33.204 39.8567 33.0993 39.8997 32.9661 39.8997C32.8424 39.8997 32.7377 39.8567 32.6521 39.7707C32.5664 39.6848 32.5236 39.5797 32.5236 39.4555V35.5867H26.5994V39.4555C26.5994 39.5797 26.5566 39.6848 26.4709 39.7707C26.3948 39.8567 26.2901 39.8997 26.1569 39.8997Z" fill="white"/>
<path d="M42.5504 39.8997C41.5035 39.8997 40.7327 39.6561 40.2378 39.1689C39.7524 38.6722 39.5098 37.8984 39.5098 36.8477V33.5663C39.5098 32.506 39.7524 31.7323 40.2378 31.2451C40.7327 30.7579 41.5035 30.5191 42.5504 30.5286H44.2634C45.3102 30.5286 46.0763 30.7722 46.5617 31.2594C47.0565 31.7466 47.304 32.5203 47.304 33.5807V36.8477C47.304 37.8984 47.0565 38.6722 46.5617 39.1689C46.0763 39.6561 45.3102 39.8997 44.2634 39.8997H42.5504ZM44.2634 39.0113C44.8058 39.0113 45.2293 38.9444 45.5339 38.8107C45.8479 38.6674 46.0715 38.4429 46.2048 38.1372C46.3475 37.822 46.4189 37.3921 46.4189 36.8477V33.5807C46.4189 33.0362 46.3475 32.6111 46.2048 32.3054C46.0715 31.9902 45.8479 31.7657 45.5339 31.632C45.2293 31.4887 44.8058 31.417 44.2634 31.417H42.5361C41.9936 31.4075 41.5654 31.4743 41.2513 31.6176C40.9468 31.7514 40.7279 31.9758 40.5947 32.2911C40.4614 32.5968 40.3948 33.0219 40.3948 33.5663V36.8477C40.3948 37.3921 40.4614 37.822 40.5947 38.1372C40.7374 38.4429 40.9611 38.6674 41.2656 38.8107C41.5797 38.9444 42.0079 39.0113 42.5504 39.0113H44.2634Z" fill="white"/>
<path d="M59.1245 39.0113C59.4195 39.0113 59.567 39.1594 59.567 39.4555C59.567 39.7516 59.4195 39.8997 59.1245 39.8997H53.8427C53.5477 39.8997 53.4002 39.7516 53.4002 39.4555V30.9728C53.4002 30.6767 53.5477 30.5286 53.8427 30.5286H59.1245C59.4195 30.5286 59.567 30.6767 59.567 30.9728C59.567 31.269 59.4195 31.417 59.1245 31.417H54.2852V34.7127H57.44C57.7351 34.7127 57.8826 34.8607 57.8826 35.1568C57.8826 35.453 57.7351 35.601 57.44 35.601H54.2852V39.0113H59.1245Z" fill="white"/>
<path d="M67.5356 39.8997C66.6982 39.8997 66.0653 39.7182 65.6371 39.3552C65.2183 38.9827 64.9804 38.4095 64.9233 37.6357C64.9138 37.4925 64.9471 37.3826 65.0232 37.3062C65.1089 37.2202 65.2231 37.1772 65.3658 37.1772C65.6323 37.1772 65.7798 37.3205 65.8083 37.6071C65.8464 38.1325 65.9939 38.5002 66.2509 38.7104C66.5078 38.911 66.9361 39.0113 67.5356 39.0113H69.5912C70.2479 39.0113 70.6999 38.8871 70.9474 38.6388C71.2043 38.3808 71.3328 37.9271 71.3328 37.2775C71.3328 36.6184 71.2043 36.1599 70.9474 35.9019C70.6904 35.644 70.2384 35.5151 69.5912 35.5151H67.6927C66.8362 35.5151 66.2033 35.3145 65.7941 34.9133C65.3944 34.5025 65.1945 33.872 65.1945 33.0219C65.1945 32.1621 65.3944 31.5316 65.7941 31.1304C66.2033 30.7292 66.8314 30.5286 67.6784 30.5286H69.5912C70.3811 30.5286 70.9759 30.7006 71.3756 31.0445C71.7753 31.3884 71.999 31.9233 72.0466 32.6493C72.0561 32.7926 72.0228 32.9072 71.9466 32.9932C71.8705 33.0696 71.7611 33.1078 71.6183 33.1078C71.4851 33.1078 71.3804 33.0696 71.3043 32.9932C71.2281 32.9168 71.1805 32.8069 71.1615 32.6636C71.1234 32.2051 70.9854 31.8851 70.7475 31.7036C70.5191 31.5125 70.1337 31.417 69.5912 31.417H67.6784C67.0693 31.417 66.6506 31.5317 66.4222 31.7609C66.1938 31.9902 66.0796 32.4105 66.0796 33.0219C66.0796 33.6237 66.1938 34.044 66.4222 34.2828C66.6601 34.5121 67.0836 34.6267 67.6927 34.6267H69.5912C70.4953 34.6267 71.1568 34.8416 71.5755 35.2715C72.0037 35.7013 72.2179 36.37 72.2179 37.2775C72.2179 38.1755 72.0037 38.8394 71.5755 39.2692C71.1472 39.6895 70.4858 39.8997 69.5912 39.8997H67.5356Z" fill="white"/>
<path d="M88.5261 39.8997C87.4793 39.8997 86.7084 39.6561 86.2136 39.1689C85.7282 38.6722 85.4855 37.8984 85.4855 36.8477V33.5663C85.4855 32.506 85.7282 31.7323 86.2136 31.2451C86.7084 30.7579 87.4793 30.5191 88.5261 30.5286H90.2391C91.286 30.5286 92.0521 30.7722 92.5374 31.2594C93.0323 31.7466 93.2797 32.5203 93.2797 33.5807V36.8477C93.2797 37.8984 93.0323 38.6722 92.5374 39.1689C92.0521 39.6561 91.286 39.8997 90.2391 39.8997H88.5261ZM90.2391 39.0113C90.7816 39.0113 91.2051 38.9444 91.5096 38.8107C91.8237 38.6674 92.0473 38.4429 92.1805 38.1372C92.3233 37.822 92.3947 37.3921 92.3947 36.8477V33.5807C92.3947 33.0362 92.3233 32.6111 92.1805 32.3054C92.0473 31.9902 91.8237 31.7657 91.5096 31.632C91.2051 31.4887 90.7816 31.417 90.2391 31.417H88.5119C87.9694 31.4075 87.5411 31.4743 87.2271 31.6176C86.9226 31.7514 86.7037 31.9758 86.5704 32.2911C86.4372 32.5968 86.3706 33.0219 86.3706 33.5663V36.8477C86.3706 37.3921 86.4372 37.822 86.5704 38.1372C86.7132 38.4429 86.9368 38.6674 87.2414 38.8107C87.5554 38.9444 87.9837 39.0113 88.5261 39.0113H90.2391Z" fill="white"/>
<path d="M99.8185 39.8997C99.5235 39.8997 99.376 39.7516 99.376 39.4555V30.9728C99.376 30.6767 99.5235 30.5286 99.8185 30.5286H104.986C105.281 30.5286 105.429 30.6767 105.429 30.9728C105.429 31.269 105.281 31.417 104.986 31.417H100.261V34.7127H103.387C103.682 34.7127 103.83 34.8607 103.83 35.1568C103.83 35.453 103.682 35.601 103.387 35.601H100.261V39.4555C100.261 39.7516 100.114 39.8997 99.8185 39.8997Z" fill="white"/>
<path d="M123.53 39.0113C123.825 39.0113 123.972 39.1594 123.972 39.4555C123.972 39.7516 123.825 39.8997 123.53 39.8997H118.248C117.953 39.8997 117.805 39.7516 117.805 39.4555V30.9728C117.805 30.6767 117.953 30.5286 118.248 30.5286H123.53C123.825 30.5286 123.972 30.6767 123.972 30.9728C123.972 31.269 123.825 31.417 123.53 31.417H118.69V34.7127H121.845C122.14 34.7127 122.288 34.8607 122.288 35.1568C122.288 35.453 122.14 35.601 121.845 35.601H118.69V39.0113H123.53Z" fill="white"/>
<path d="M132.34 39.8997C132.045 39.8997 131.898 39.7516 131.898 39.4555V31.4027H128.943C128.648 31.4027 128.5 31.2546 128.5 30.9585C128.5 30.8248 128.539 30.7197 128.615 30.6433C128.691 30.5573 128.8 30.5143 128.943 30.5143H135.738C135.871 30.5143 135.976 30.5573 136.052 30.6433C136.138 30.7197 136.18 30.8248 136.18 30.9585C136.18 31.1018 136.138 31.2116 136.052 31.2881C135.976 31.3645 135.871 31.4027 135.738 31.4027H132.783V39.4555C132.783 39.5988 132.74 39.7086 132.655 39.7851C132.578 39.8615 132.474 39.8997 132.34 39.8997Z" fill="white"/>
<path d="M147.159 39.0113C147.454 39.0113 147.601 39.1594 147.601 39.4555C147.601 39.7516 147.454 39.8997 147.159 39.8997H141.877C141.582 39.8997 141.434 39.7516 141.434 39.4555V30.9728C141.434 30.6767 141.582 30.5286 141.877 30.5286H147.159C147.454 30.5286 147.601 30.6767 147.601 30.9728C147.601 31.269 147.454 31.417 147.159 31.417H142.32V34.7127H145.474C145.769 34.7127 145.917 34.8607 145.917 35.1568C145.917 35.453 145.769 35.601 145.474 35.601H142.32V39.0113H147.159Z" fill="white"/>
<path d="M159.567 39.3122C159.615 39.3791 159.638 39.4651 159.638 39.5701C159.638 39.7039 159.567 39.8233 159.424 39.9284C159.358 39.9761 159.272 40 159.167 40C159.034 40 158.915 39.9284 158.81 39.7851L156.526 36.0596H154.085V39.4555C154.085 39.7516 153.938 39.8997 153.643 39.8997C153.348 39.8997 153.2 39.7516 153.2 39.4555V30.9728C153.2 30.6767 153.348 30.5286 153.643 30.5286H156.983C157.811 30.5286 158.439 30.7436 158.867 31.1734C159.305 31.6033 159.524 32.2385 159.524 33.0792V33.509C159.524 34.2446 159.353 34.8273 159.01 35.2572C158.677 35.6775 158.187 35.9306 157.54 36.0166L159.567 39.3122ZM154.085 35.1712H156.983C157.564 35.1712 157.982 35.0422 158.239 34.7843C158.506 34.5168 158.639 34.0917 158.639 33.509V33.0792C158.639 32.4965 158.506 32.0761 158.239 31.8182C157.982 31.5508 157.564 31.417 156.983 31.417H154.085V35.1712Z" fill="white"/>
<path d="M172.451 30.5286C172.746 30.5286 172.893 30.6767 172.893 30.9728V39.4555C172.893 39.7516 172.746 39.8997 172.451 39.8997C172.289 39.8997 172.137 39.8137 171.994 39.6418L166.255 32.2338V39.4555C166.255 39.7516 166.108 39.8997 165.813 39.8997C165.518 39.8997 165.37 39.7516 165.37 39.4555V30.9728C165.37 30.6767 165.518 30.5286 165.813 30.5286C165.975 30.5286 166.122 30.6146 166.255 30.7866L172.008 38.2089V30.9728C172.008 30.6767 172.156 30.5286 172.451 30.5286Z" fill="white"/>
<path d="M179.67 39.8997C179.375 39.8997 179.227 39.7516 179.227 39.4555V30.9585C179.227 30.6624 179.375 30.5143 179.67 30.5143C179.965 30.5143 180.112 30.6624 180.112 30.9585V39.4555C180.112 39.7516 179.965 39.8997 179.67 39.8997Z" fill="white"/>
<path d="M189.218 39.8997C188.923 39.8997 188.775 39.7516 188.775 39.4555V31.4027H185.82C185.525 31.4027 185.378 31.2546 185.378 30.9585C185.378 30.8248 185.416 30.7197 185.492 30.6433C185.568 30.5573 185.677 30.5143 185.82 30.5143H192.615C192.748 30.5143 192.853 30.5573 192.929 30.6433C193.015 30.7197 193.058 30.8248 193.058 30.9585C193.058 31.1018 193.015 31.2116 192.929 31.2881C192.853 31.3645 192.748 31.4027 192.615 31.4027H189.66V39.4555C189.66 39.5988 189.617 39.7086 189.532 39.7851C189.456 39.8615 189.351 39.8997 189.218 39.8997Z" fill="white"/>
<path d="M204.772 30.6146C204.924 30.7197 205 30.8343 205 30.9585C205 31.0445 204.967 31.1352 204.9 31.2307L201.631 36.3461V39.4555C201.631 39.7516 201.484 39.8997 201.189 39.8997C200.894 39.8997 200.746 39.7516 200.746 39.4555V36.3461L197.534 31.2307C197.477 31.1448 197.449 31.0588 197.449 30.9728C197.449 30.8295 197.52 30.7101 197.663 30.6146C197.748 30.5573 197.839 30.5286 197.934 30.5286C198.077 30.5286 198.191 30.6003 198.276 30.7436L201.189 35.4004L204.172 30.7436C204.258 30.6003 204.372 30.5286 204.515 30.5286C204.6 30.5286 204.686 30.5573 204.772 30.6146Z" fill="white"/>
</svg>
