<svg width="233" height="44" viewBox="0 0 233 44" fill="none" xmlns="http://www.w3.org/2000/svg">
<path d="M6.21146 21C4.49146 21 3.15146 20.66 2.19146 19.98C1.25146 19.28 0.661462 18.21 0.421462 16.77C0.381462 16.35 0.471462 16.03 0.691462 15.81C0.911462 15.57 1.23146 15.45 1.65146 15.45C2.05146 15.45 2.35146 15.55 2.55146 15.75C2.75146 15.93 2.89146 16.24 2.97146 16.68C3.11146 17.36 3.42146 17.83 3.90146 18.09C4.40146 18.35 5.17146 18.48 6.21146 18.48H10.5315C11.4115 18.48 12.0815 18.38 12.5415 18.18C13.0215 17.98 13.3615 17.65 13.5615 17.19C13.7615 16.71 13.8615 16.04 13.8615 15.18C13.8615 13.9 13.6215 13.02 13.1415 12.54C12.6615 12.06 11.7915 11.82 10.5315 11.82H6.81146C4.93146 11.82 3.53146 11.36 2.61146 10.44C1.69146 9.52 1.23146 8.11 1.23146 6.21C1.23146 4.33 1.68146 2.94 2.58146 2.04C3.50146 1.12 4.90146 0.660004 6.78146 0.660004H10.3515C13.5115 0.660004 15.3315 1.98 15.8115 4.62C15.8715 5.04 15.7915 5.37 15.5715 5.61C15.3515 5.83 15.0215 5.94 14.5815 5.94C14.1815 5.94 13.8815 5.84 13.6815 5.64C13.4815 5.44 13.3515 5.13 13.2915 4.71C13.1315 4.13 12.8315 3.73 12.3915 3.51C11.9515 3.29 11.2715 3.18 10.3515 3.18H6.78146C5.96146 3.18 5.33146 3.27 4.89146 3.45C4.47146 3.63 4.17146 3.94 3.99146 4.38C3.83146 4.8 3.75146 5.41 3.75146 6.21C3.75146 7.03 3.84146 7.66 4.02146 8.1C4.20146 8.52 4.50146 8.83 4.92146 9.03C5.36146 9.21 5.99146 9.3 6.81146 9.3H10.5315C12.5115 9.3 13.9815 9.78 14.9415 10.74C15.9015 11.7 16.3815 13.18 16.3815 15.18C16.3815 17.16 15.9015 18.63 14.9415 19.59C13.9815 20.53 12.5115 21 10.5315 21H6.21146Z" fill="white"/>
<path d="M29.5088 21C28.6688 21 28.2488 20.58 28.2488 19.74V3.21H22.4288C21.5888 3.21 21.1688 2.79 21.1688 1.95C21.1688 1.11 21.5888 0.690003 22.4288 0.690003H36.5888C37.4288 0.690003 37.8488 1.11 37.8488 1.95C37.8488 2.79 37.4288 3.21 36.5888 3.21H30.7688V19.74C30.7688 20.14 30.6588 20.45 30.4388 20.67C30.2188 20.89 29.9088 21 29.5088 21Z" fill="white"/>
<path d="M57.9542 19.23C58.0342 19.41 58.0742 19.61 58.0742 19.83C58.0742 20.31 57.8042 20.66 57.2642 20.88C57.0842 20.96 56.8842 21 56.6642 21C56.1842 21 55.8342 20.73 55.6142 20.19L53.9942 16.26H44.6642L43.1042 20.19C42.8842 20.73 42.5342 21 42.0542 21C41.8542 21 41.6642 20.96 41.4842 20.88C40.9242 20.68 40.6442 20.33 40.6442 19.83C40.6442 19.61 40.6842 19.41 40.7642 19.23L47.9042 1.65C48.2042 0.990004 48.6742 0.660004 49.3142 0.660004H49.3742C50.0342 0.700003 50.4742 1.03 50.6942 1.65L57.9542 19.23ZM45.6542 13.74H52.9742L49.2242 4.65L45.6542 13.74Z" fill="white"/>
<path d="M79.3747 7.23C79.3747 8.81 79.0047 10.08 78.2647 11.04C77.5247 12 76.4547 12.59 75.0547 12.81L78.9847 19.35C79.1047 19.55 79.1647 19.77 79.1647 20.01C79.1647 20.45 78.9447 20.8 78.5047 21.06C78.2447 21.22 78.0147 21.3 77.8147 21.3C77.4147 21.3 77.0747 21.08 76.7947 20.64L72.1447 12.9H67.9447V19.74C67.9447 20.14 67.8347 20.45 67.6147 20.67C67.3947 20.89 67.0847 21 66.6847 21C66.2847 21 65.9747 20.89 65.7547 20.67C65.5347 20.45 65.4247 20.14 65.4247 19.74V1.92C65.4247 1.52 65.5347 1.21 65.7547 0.990003C65.9747 0.770003 66.2847 0.660004 66.6847 0.660004H73.7047C75.5447 0.660004 76.9447 1.15 77.9047 2.13C78.8847 3.09 79.3747 4.49 79.3747 6.33V7.23ZM76.8547 6.33C76.8547 5.21 76.6147 4.41 76.1347 3.93C75.6547 3.43 74.8447 3.18 73.7047 3.18H67.9447V10.38H73.7047C74.8447 10.38 75.6547 10.14 76.1347 9.66C76.6147 9.18 76.8547 8.37 76.8547 7.23V6.33Z" fill="white"/>
<path d="M99.9547 9.45C101.535 10.37 102.325 12 102.325 14.34V15.36C102.325 17.2 101.835 18.6 100.855 19.56C99.8947 20.52 98.4947 21 96.6547 21H88.4347C88.0347 21 87.7247 20.89 87.5047 20.67C87.2847 20.45 87.1747 20.14 87.1747 19.74V1.92C87.1747 1.52 87.2847 1.21 87.5047 0.990003C87.7247 0.770003 88.0347 0.660004 88.4347 0.660004H96.2647C97.8447 0.660004 99.0647 1.08 99.9247 1.92C100.785 2.76 101.215 3.96 101.215 5.52V6.33C101.215 6.97 101.105 7.56 100.885 8.1C100.665 8.64 100.355 9.09 99.9547 9.45ZM89.6947 8.73H97.1947C97.7147 8.67 98.0947 8.43 98.3347 8.01C98.5747 7.57 98.6947 7.01 98.6947 6.33V5.52C98.6947 4.66 98.5147 4.06 98.1547 3.72C97.7947 3.36 97.1647 3.18 96.2647 3.18H89.6947V8.73ZM99.8047 14.34C99.8047 13.22 99.5647 12.43 99.0847 11.97C98.6047 11.49 97.7947 11.25 96.6547 11.25H89.6947V18.48H96.6547C97.7747 18.48 98.5747 18.24 99.0547 17.76C99.5547 17.28 99.8047 16.48 99.8047 15.36V14.34Z" fill="white"/>
<path d="M124.31 7.23C124.31 8.81 123.94 10.08 123.2 11.04C122.46 12 121.39 12.59 119.99 12.81L123.92 19.35C124.04 19.55 124.1 19.77 124.1 20.01C124.1 20.45 123.88 20.8 123.44 21.06C123.18 21.22 122.95 21.3 122.75 21.3C122.35 21.3 122.01 21.08 121.73 20.64L117.08 12.9H112.88V19.74C112.88 20.14 112.77 20.45 112.55 20.67C112.33 20.89 112.02 21 111.62 21C111.22 21 110.91 20.89 110.69 20.67C110.47 20.45 110.36 20.14 110.36 19.74V1.92C110.36 1.52 110.47 1.21 110.69 0.990003C110.91 0.770003 111.22 0.660004 111.62 0.660004H118.64C120.48 0.660004 121.88 1.15 122.84 2.13C123.82 3.09 124.31 4.49 124.31 6.33V7.23ZM121.79 6.33C121.79 5.21 121.55 4.41 121.07 3.93C120.59 3.43 119.78 3.18 118.64 3.18H112.88V10.38H118.64C119.78 10.38 120.59 10.14 121.07 9.66C121.55 9.18 121.79 8.37 121.79 7.23V6.33Z" fill="white"/>
<path d="M144.14 18.48C144.54 18.48 144.85 18.59 145.07 18.81C145.29 19.03 145.4 19.34 145.4 19.74C145.4 20.14 145.29 20.45 145.07 20.67C144.85 20.89 144.54 21 144.14 21H133.37C132.97 21 132.66 20.89 132.44 20.67C132.22 20.45 132.11 20.14 132.11 19.74V1.92C132.11 1.52 132.22 1.21 132.44 0.990003C132.66 0.770003 132.97 0.660004 133.37 0.660004H144.14C144.54 0.660004 144.85 0.770003 145.07 0.990003C145.29 1.21 145.4 1.52 145.4 1.92C145.4 2.32 145.29 2.63 145.07 2.85C144.85 3.07 144.54 3.18 144.14 3.18H134.63V9.48H140.6C141 9.48 141.31 9.59 141.53 9.81C141.75 10.03 141.86 10.34 141.86 10.74C141.86 11.14 141.75 11.45 141.53 11.67C141.31 11.89 141 12 140.6 12H134.63V18.48H144.14Z" fill="white"/>
<path d="M165.216 18.48C165.616 18.48 165.926 18.59 166.146 18.81C166.366 19.03 166.476 19.34 166.476 19.74C166.476 20.14 166.366 20.45 166.146 20.67C165.926 20.89 165.616 21 165.216 21H154.446C154.046 21 153.736 20.89 153.516 20.67C153.296 20.45 153.186 20.14 153.186 19.74V1.92C153.186 1.52 153.296 1.21 153.516 0.990003C153.736 0.770003 154.046 0.660004 154.446 0.660004H165.216C165.616 0.660004 165.926 0.770003 166.146 0.990003C166.366 1.21 166.476 1.52 166.476 1.92C166.476 2.32 166.366 2.63 166.146 2.85C165.926 3.07 165.616 3.18 165.216 3.18H155.706V9.48H161.676C162.076 9.48 162.386 9.59 162.606 9.81C162.826 10.03 162.936 10.34 162.936 10.74C162.936 11.14 162.826 11.45 162.606 11.67C162.386 11.89 162.076 12 161.676 12H155.706V18.48H165.216Z" fill="white"/>
<path d="M186.293 18.48C186.693 18.48 187.003 18.59 187.223 18.81C187.443 19.03 187.553 19.34 187.553 19.74C187.553 20.14 187.443 20.45 187.223 20.67C187.003 20.89 186.693 21 186.293 21H175.523C175.123 21 174.813 20.89 174.593 20.67C174.373 20.45 174.263 20.14 174.263 19.74V1.92C174.263 1.52 174.373 1.21 174.593 0.990003C174.813 0.770003 175.123 0.660004 175.523 0.660004H186.293C186.693 0.660004 187.003 0.770003 187.223 0.990003C187.443 1.21 187.553 1.52 187.553 1.92C187.553 2.32 187.443 2.63 187.223 2.85C187.003 3.07 186.693 3.18 186.293 3.18H176.783V9.48H182.753C183.153 9.48 183.463 9.59 183.683 9.81C183.903 10.03 184.013 10.34 184.013 10.74C184.013 11.14 183.903 11.45 183.683 11.67C183.463 11.89 183.153 12 182.753 12H176.783V18.48H186.293Z" fill="white"/>
<path d="M210.039 16.08C210.459 16.08 210.779 16.2 210.999 16.44C211.239 16.66 211.329 16.98 211.269 17.4C211.029 18.58 210.499 19.48 209.679 20.1C208.859 20.7 207.769 21 206.409 21H195.339C194.939 21 194.629 20.89 194.409 20.67C194.209 20.45 194.109 20.14 194.109 19.74C194.109 19.48 194.269 19.12 194.589 18.66L206.409 3.18H198.639C197.999 3.18 197.499 3.28 197.139 3.48C196.779 3.66 196.529 3.97 196.389 4.41C196.289 4.81 196.139 5.11 195.939 5.31C195.739 5.49 195.449 5.58 195.069 5.58C194.689 5.58 194.379 5.49 194.139 5.31C193.919 5.11 193.809 4.85 193.809 4.53C193.809 4.41 193.819 4.32 193.839 4.26C194.079 3.1 194.599 2.21 195.399 1.59C196.219 0.970004 197.299 0.660004 198.639 0.660004H208.659C209.079 0.660004 209.389 0.770003 209.589 0.990003C209.809 1.21 209.919 1.52 209.919 1.92C209.919 2.26 209.759 2.64 209.439 3.06L197.619 18.48H206.409C207.089 18.48 207.609 18.39 207.969 18.21C208.329 18.01 208.569 17.69 208.689 17.25C208.809 16.85 208.969 16.56 209.169 16.38C209.369 16.18 209.659 16.08 210.039 16.08Z" fill="white"/>
<path d="M231.052 18.48C231.452 18.48 231.762 18.59 231.982 18.81C232.202 19.03 232.312 19.34 232.312 19.74C232.312 20.14 232.202 20.45 231.982 20.67C231.762 20.89 231.452 21 231.052 21H220.282C219.882 21 219.572 20.89 219.352 20.67C219.132 20.45 219.022 20.14 219.022 19.74V1.92C219.022 1.52 219.132 1.21 219.352 0.990003C219.572 0.770003 219.882 0.660004 220.282 0.660004H231.052C231.452 0.660004 231.762 0.770003 231.982 0.990003C232.202 1.21 232.312 1.52 232.312 1.92C232.312 2.32 232.202 2.63 231.982 2.85C231.762 3.07 231.452 3.18 231.052 3.18H221.542V9.48H227.512C227.912 9.48 228.222 9.59 228.442 9.81C228.662 10.03 228.772 10.34 228.772 10.74C228.772 11.14 228.662 11.45 228.442 11.67C228.222 11.89 227.912 12 227.512 12H221.542V18.48H231.052Z" fill="white"/>
<path d="M4.416 43.3538C3.584 43.3538 2.828 43.1698 2.148 42.8018C1.476 42.4258 0.947999 41.9138 0.563999 41.2658C0.187999 40.6178 0 39.8898 0 39.0818C0 38.2738 0.187999 37.5458 0.563999 36.8978C0.947999 36.2498 1.476 35.7418 2.148 35.3738C2.828 34.9978 3.584 34.8098 4.416 34.8098C5.248 34.8098 5.996 34.9938 6.66 35.3618C7.332 35.7298 7.86 36.2418 8.244 36.8978C8.628 37.5458 8.82 38.2738 8.82 39.0818C8.82 39.8898 8.628 40.6218 8.244 41.2778C7.86 41.9258 7.332 42.4338 6.66 42.8018C5.996 43.1698 5.248 43.3538 4.416 43.3538ZM4.416 42.5618C5.08 42.5618 5.68 42.4138 6.216 42.1178C6.752 41.8138 7.172 41.3978 7.476 40.8698C7.78 40.3338 7.932 39.7378 7.932 39.0818C7.932 38.4258 7.78 37.8338 7.476 37.3058C7.172 36.7698 6.752 36.3538 6.216 36.0578C5.68 35.7538 5.08 35.6018 4.416 35.6018C3.752 35.6018 3.148 35.7538 2.604 36.0578C2.068 36.3538 1.644 36.7698 1.332 37.3058C1.028 37.8338 0.875999 38.4258 0.875999 39.0818C0.875999 39.7378 1.028 40.3338 1.332 40.8698C1.644 41.3978 2.068 41.8138 2.604 42.1178C3.148 42.4138 3.752 42.5618 4.416 42.5618Z" fill="white"/>
<path d="M27.4304 34.8818V43.2818H26.6984L21.2984 36.4658V43.2818H20.4104V34.8818H21.1424L26.5544 41.6978V34.8818H27.4304Z" fill="white"/>
<path d="M54.1448 35.6498H51.1928V34.8818H57.9848V35.6498H55.0328V43.2818H54.1448V35.6498Z" fill="white"/>
<path d="M76.0234 34.8818V43.2818H75.1474V39.4058H69.8914V43.2818H69.0034V34.8818H69.8914V38.6258H75.1474V34.8818H76.0234Z" fill="white"/>
<path d="M94.3051 42.5138V43.2818H88.3651V34.8818H94.1251V35.6498H89.2531V38.6378H93.5971V39.3938H89.2531V42.5138H94.3051Z" fill="white"/>
<path d="M124.673 42.5138V43.2818H118.733V34.8818H124.493V35.6498H119.621V38.6378H123.965V39.3938H119.621V42.5138H124.673Z" fill="white"/>
<path d="M136.36 34.8818H139.78C140.668 34.8818 141.452 35.0618 142.132 35.4218C142.812 35.7738 143.34 36.2698 143.716 36.9098C144.092 37.5418 144.28 38.2658 144.28 39.0818C144.28 39.8978 144.092 40.6258 143.716 41.2658C143.34 41.8978 142.812 42.3938 142.132 42.7538C141.452 43.1058 140.668 43.2818 139.78 43.2818H136.36V34.8818ZM139.732 42.5138C140.468 42.5138 141.112 42.3698 141.664 42.0818C142.216 41.7858 142.644 41.3818 142.948 40.8698C143.252 40.3498 143.404 39.7538 143.404 39.0818C143.404 38.4098 143.252 37.8178 142.948 37.3058C142.644 36.7858 142.216 36.3818 141.664 36.0938C141.112 35.7978 140.468 35.6498 139.732 35.6498H137.248V42.5138H139.732Z" fill="white"/>
<path d="M161.79 39.0818H162.642V42.2858C162.25 42.6298 161.786 42.8938 161.25 43.0778C160.714 43.2618 160.15 43.3538 159.558 43.3538C158.718 43.3538 157.962 43.1698 157.29 42.8018C156.618 42.4338 156.09 41.9258 155.706 41.2778C155.322 40.6218 155.13 39.8898 155.13 39.0818C155.13 38.2738 155.322 37.5458 155.706 36.8978C156.09 36.2418 156.618 35.7298 157.29 35.3618C157.962 34.9938 158.722 34.8098 159.57 34.8098C160.21 34.8098 160.798 34.9138 161.334 35.1218C161.87 35.3218 162.322 35.6218 162.69 36.0218L162.138 36.5858C161.474 35.9298 160.63 35.6018 159.606 35.6018C158.926 35.6018 158.31 35.7538 157.758 36.0578C157.214 36.3538 156.786 36.7698 156.474 37.3058C156.162 37.8338 156.006 38.4258 156.006 39.0818C156.006 39.7378 156.162 40.3298 156.474 40.8578C156.786 41.3858 157.214 41.8018 157.758 42.1058C158.302 42.4098 158.914 42.5618 159.594 42.5618C160.458 42.5618 161.19 42.3458 161.79 41.9138V39.0818Z" fill="white"/>
<path d="M180.696 42.5138V43.2818H174.756V34.8818H180.516V35.6498H175.644V38.6378H179.988V39.3938H175.644V42.5138H180.696Z" fill="white"/>
</svg>
